<svg width="24" height="24" viewBox="0 0 24 24" fill="none" xmlns="http://www.w3.org/2000/svg">
<path fill-rule="evenodd" clip-rule="evenodd" d="M1 1V3.2H3.2L7.16 11.56L5.62 14.2C5.51 14.53 5.4 14.97 5.4 15.3C5.4 16.51 6.39 17.5 7.6 17.5H20.8V15.3H8.04C7.93 15.3 7.82 15.19 7.82 15.08V14.97L8.81 13.1H16.95C17.83 13.1 18.49 12.66 18.82 12L22.78 4.85C23 4.63 23 4.52 23 4.3C23 3.64 22.56 3.2 21.9 3.2H5.62L4.63 1H1ZM7.6 18.6C6.39 18.6 5.4 19.59 5.4 20.8C5.4 22.01 6.39 23 7.6 23C8.81 23 9.8 22.01 9.8 20.8C9.8 19.59 8.81 18.6 7.6 18.6ZM16.4 20.8C16.4 19.59 17.39 18.6 18.6 18.6C19.81 18.6 20.8 19.59 20.8 20.8C20.8 22.01 19.81 23 18.6 23C17.39 23 16.4 22.01 16.4 20.8Z" fill="black" fill-opacity="0.86"/>
</svg>
