<svg width="79" height="79" viewBox="0 0 79 79" fill="none" xmlns="http://www.w3.org/2000/svg">
<mask id="path-1-outside-1_1_523" maskUnits="userSpaceOnUse" x="-1.19899" y="-1.39009" width="81.3647" height="82.3477" fill="black">
<rect fill="white" x="-1.19899" y="-1.39009" width="81.3647" height="82.3477"/>
<path d="M45.112 12.5077C45.4963 11.8831 46.0553 11.4834 46.789 11.3087C47.5227 11.1339 48.2019 11.2387 48.8265 11.623L60.665 18.9072C61.2896 19.2915 61.6892 19.8505 61.864 20.5842C62.0387 21.318 61.9339 21.9971 61.5496 22.6217L53.2174 36.1636L66.0779 44.0766C66.7025 44.4609 67.1021 45.0199 67.2769 45.7537C67.4516 46.4874 67.3469 47.1665 66.9626 47.7911L58.9971 60.7368C58.6128 61.3614 58.0538 61.7611 57.3201 61.9358C56.5864 62.1106 55.9072 62.0058 55.2826 61.6215L42.4221 53.7084L34.0898 67.2503C33.7055 67.8749 33.1465 68.2746 32.4128 68.4493C31.679 68.6241 30.9999 68.5193 30.3753 68.135L18.5368 60.8508C17.9122 60.4665 17.5126 59.9075 17.3378 59.1738C17.1631 58.44 17.2678 57.7609 17.6521 57.1363L25.9844 43.5944L12.698 35.4193C12.0735 35.0351 11.6738 34.476 11.499 33.7423C11.3243 33.0086 11.4291 32.3294 11.8134 31.7049L19.7788 18.7591C20.1631 18.1346 20.7221 17.7349 21.4559 17.5602C22.1896 17.3854 22.8687 17.4902 23.4933 17.8745L36.7797 26.0496L45.112 12.5077Z"/>
</mask>
<path d="M46.789 11.3087L46.5573 10.3359L46.5573 10.3359L46.789 11.3087ZM61.864 20.5842L62.8368 20.3526L62.8368 20.3525L61.864 20.5842ZM53.2174 36.1636L52.3657 35.6395L51.8416 36.4912L52.6933 37.0153L53.2174 36.1636ZM67.2769 45.7537L68.2497 45.522L68.2497 45.522L67.2769 45.7537ZM57.3201 61.9358L57.5518 62.9086L57.5518 62.9086L57.3201 61.9358ZM42.4221 53.7084L42.9461 52.8567L42.0944 52.3327L41.5704 53.1844L42.4221 53.7084ZM32.4128 68.4493L32.6445 69.4221L32.4128 68.4493ZM17.3378 59.1738L16.365 59.4054L17.3378 59.1738ZM25.9844 43.5944L26.8361 44.1185L27.3602 43.2668L26.5085 42.7427L25.9844 43.5944ZM11.499 33.7423L10.5263 33.974L11.499 33.7423ZM21.4559 17.5602L21.2242 16.5874L21.2242 16.5874L21.4559 17.5602ZM36.7797 26.0496L36.2557 26.9013L37.1074 27.4253L37.6314 26.5736L36.7797 26.0496ZM45.9637 13.0317C46.2046 12.6401 46.5367 12.3967 47.0207 12.2815L46.5573 10.3359C45.5738 10.5701 44.7879 11.1261 44.2603 11.9836L45.9637 13.0317ZM47.0207 12.2815C47.5047 12.1662 47.9108 12.2338 48.3024 12.4747L49.3505 10.7713C48.4929 10.2437 47.5408 10.1017 46.5573 10.3359L47.0207 12.2815ZM48.3024 12.4747L60.1409 19.7589L61.189 18.0555L49.3505 10.7713L48.3024 12.4747ZM60.1409 19.7589C60.5325 19.9998 60.7759 20.332 60.8912 20.8159L62.8368 20.3525C62.6025 19.3691 62.0466 18.5832 61.189 18.0555L60.1409 19.7589ZM60.8912 20.8159C61.0064 21.2999 60.9389 21.7061 60.6979 22.0976L62.4013 23.1457C62.929 22.2882 63.071 21.336 62.8368 20.3526L60.8912 20.8159ZM60.6979 22.0976L52.3657 35.6395L54.0691 36.6876L62.4013 23.1457L60.6979 22.0976ZM52.6933 37.0153L65.5539 44.9283L66.602 43.2249L53.7414 35.3119L52.6933 37.0153ZM65.5539 44.9283C65.9454 45.1693 66.1888 45.5014 66.3041 45.9853L68.2497 45.522C68.0154 44.5385 67.4595 43.7526 66.602 43.2249L65.5539 44.9283ZM66.3041 45.9853C66.4194 46.4693 66.3518 46.8755 66.1109 47.2671L67.8143 48.3152C68.3419 47.4576 68.4839 46.5055 68.2497 45.522L66.3041 45.9853ZM66.1109 47.2671L58.1454 60.2128L59.8488 61.2609L67.8143 48.3152L66.1109 47.2671ZM58.1454 60.2128C57.9045 60.6044 57.5724 60.8478 57.0884 60.963L57.5518 62.9086C58.5353 62.6744 59.3211 62.1184 59.8488 61.2609L58.1454 60.2128ZM57.0884 60.963C56.6044 61.0783 56.1983 61.0107 55.8067 60.7698L54.7586 62.4732C55.6162 63.0008 56.5683 63.1428 57.5518 62.9086L57.0884 60.963ZM55.8067 60.7698L42.9461 52.8567L41.898 54.5601L54.7586 62.4732L55.8067 60.7698ZM41.5704 53.1844L33.2381 66.7263L34.9415 67.7744L43.2738 54.2325L41.5704 53.1844ZM33.2381 66.7263C32.9972 67.1179 32.665 67.3613 32.1811 67.4765L32.6445 69.4221C33.6279 69.1879 34.4138 68.6319 34.9415 67.7744L33.2381 66.7263ZM32.1811 67.4765C31.6971 67.5918 31.2909 67.5242 30.8994 67.2833L29.8513 68.9867C30.7088 69.5143 31.661 69.6563 32.6445 69.4221L32.1811 67.4765ZM30.8994 67.2833L19.0608 59.9991L18.0128 61.7025L29.8513 68.9867L30.8994 67.2833ZM19.0608 59.9991C18.6693 59.7582 18.4259 59.426 18.3106 58.9421L16.365 59.4054C16.5993 60.3889 17.1552 61.1748 18.0128 61.7025L19.0608 59.9991ZM18.3106 58.9421C18.1953 58.4581 18.2629 58.0519 18.5038 57.6604L16.8005 56.6123C16.2728 57.4698 16.1308 58.422 16.365 59.4054L18.3106 58.9421ZM18.5038 57.6604L26.8361 44.1185L25.1327 43.0704L16.8005 56.6123L18.5038 57.6604ZM26.5085 42.7427L13.2221 34.5677L12.174 36.271L25.4604 44.4461L26.5085 42.7427ZM13.2221 34.5677C12.8305 34.3267 12.5871 33.9946 12.4718 33.5106L10.5263 33.974C10.7605 34.9575 11.3164 35.7434 12.174 36.271L13.2221 34.5677ZM12.4718 33.5106C12.3566 33.0267 12.4241 32.6205 12.6651 32.2289L10.9617 31.1808C10.434 32.0384 10.292 32.9905 10.5263 33.974L12.4718 33.5106ZM12.6651 32.2289L20.6305 19.2832L18.9271 18.2351L10.9617 31.1808L12.6651 32.2289ZM20.6305 19.2832C20.8715 18.8916 21.2036 18.6482 21.6875 18.533L21.2242 16.5874C20.2407 16.8216 19.4548 17.3775 18.9271 18.2351L20.6305 19.2832ZM21.6875 18.533C22.1715 18.4177 22.5777 18.4853 22.9693 18.7262L24.0174 17.0228C23.1598 16.4951 22.2077 16.3531 21.2242 16.5874L21.6875 18.533ZM22.9693 18.7262L36.2557 26.9013L37.3037 25.1979L24.0174 17.0228L22.9693 18.7262ZM37.6314 26.5736L45.9637 13.0317L44.2603 11.9836L35.928 25.5255L37.6314 26.5736Z" fill="#FFA500" mask="url(#path-1-outside-1_1_523)"/>
</svg>
