<svg width="24" height="24" viewBox="0 0 24 24" fill="none" xmlns="http://www.w3.org/2000/svg">
<path fill-rule="evenodd" clip-rule="evenodd" d="M17.9761 15.5833L22.5109 20.118C22.8371 20.4441 23.0001 20.8409 23 21.3078C23 21.7661 22.8325 22.1628 22.4977 22.4976C22.163 22.8325 21.7661 23 21.3078 23C20.8315 23 20.4354 22.8325 20.1181 22.4976L15.5832 17.976C14.0055 19.0688 12.2471 19.6156 10.3078 19.6156C9.04746 19.6156 7.84216 19.371 6.69184 18.8819C5.54165 18.3925 4.54993 17.7316 3.717 16.8984C2.88397 16.0655 2.22289 15.074 1.73379 13.9238C1.2446 12.7733 1 11.5683 1 10.308C1 9.04756 1.2446 7.84225 1.73379 6.69191C2.22293 5.54171 2.88397 4.54998 3.717 3.71703C4.54993 2.88409 5.54147 2.22295 6.69184 1.73384C7.84203 1.2446 9.04746 1 10.3078 1C11.5682 1 12.7735 1.2446 13.924 1.73384C15.0741 2.22295 16.0655 2.88409 16.8985 3.71703C17.7314 4.54998 18.3925 5.54153 18.8816 6.69191C19.371 7.84211 19.6157 9.04756 19.6157 10.308C19.6157 12.2469 19.069 14.0056 17.9761 15.5833ZM10.3078 16.2309C11.9385 16.2309 13.3333 15.6513 14.4923 14.4921C15.6513 13.333 16.231 11.9385 16.231 10.3077C16.231 8.67719 15.6515 7.2822 14.4923 6.1233C13.3331 4.96434 11.9383 4.38461 10.3078 4.38461C8.67727 4.38461 7.28231 4.96411 6.12342 6.1233C4.96443 7.2822 4.38475 8.67719 4.38475 10.3077C4.38475 11.9385 4.96429 13.333 6.12342 14.4921C7.28254 15.6512 8.67727 16.2309 10.3078 16.2309Z" fill="black" fill-opacity="0.86"/>
</svg>
