<svg width="20" height="20" viewBox="0 0 20 20" fill="none" xmlns="http://www.w3.org/2000/svg">
<g clip-path="url(#clip0_1_1601)">
<path d="M15.6057 11.3385C14.2159 11.3385 12.983 12.0102 12.2045 13.0427L8.46395 11.1738C8.57328 10.7971 8.63497 10.4002 8.63497 9.98855C8.63497 9.57693 8.57328 9.18024 8.46395 8.80352L12.2045 6.93465C12.9832 7.96711 14.2159 8.63866 15.6057 8.63866C17.956 8.6391 19.8682 6.72698 19.8682 4.37668C19.8682 2.02638 17.956 0.114258 15.6057 0.114258C13.2554 0.114258 11.3433 2.02638 11.3433 4.37668C11.3433 4.7883 11.405 5.18499 11.5143 5.56193L7.77397 7.43058C6.99529 6.39812 5.76262 5.72635 4.37277 5.72635C2.02247 5.72635 0.110352 7.63847 0.110352 9.98877C0.110352 12.3391 2.02247 14.2512 4.37277 14.2512C5.76262 14.2512 6.99529 13.5794 7.77397 12.547L11.5143 14.4158C11.405 14.7926 11.3433 15.1895 11.3433 15.6011C11.3433 17.9512 13.2554 19.8633 15.6057 19.8633C17.956 19.8633 19.8682 17.9512 19.8682 15.6009C19.8682 13.2506 17.956 11.3385 15.6057 11.3385ZM15.6057 1.65098C17.1089 1.65098 18.3314 2.87377 18.3314 4.37668C18.3314 5.87959 17.1089 7.10238 15.6057 7.10238C14.1026 7.10238 12.88 5.87981 12.88 4.37668C12.88 2.87355 14.1026 1.65098 15.6057 1.65098ZM4.37277 12.7145C2.86986 12.7145 1.64707 11.4919 1.64707 9.98877C1.64707 8.48564 2.86986 7.26307 4.37277 7.26307C5.87568 7.26307 7.09847 8.48564 7.09847 9.98877C7.09847 11.4919 5.87568 12.7145 4.37277 12.7145ZM15.6057 18.3264C14.1026 18.3264 12.88 17.1038 12.88 15.6009C12.88 14.0977 14.1026 12.8752 15.6057 12.8752C17.1089 12.8752 18.3314 14.098 18.3314 15.6009C18.3314 17.1038 17.1089 18.3264 15.6057 18.3264Z" fill="#1D1D1B"/>
</g>
<defs>
<clipPath id="clip0_1_1601">
<rect width="20" height="20" fill="white"/>
</clipPath>
</defs>
</svg>
