<svg width="96" height="20" viewBox="0 0 96 20" fill="none" xmlns="http://www.w3.org/2000/svg">
<path d="M9.42937 1.75623C9.60898 1.20344 10.391 1.20344 10.5706 1.75623L12.1104 6.49524C12.1908 6.74245 12.4211 6.90983 12.6811 6.90983H17.664C18.2452 6.90983 18.4869 7.6536 18.0166 7.99524L13.9854 10.9241C13.7751 11.0769 13.6871 11.3477 13.7674 11.5949L15.3072 16.3339C15.4868 16.8867 14.8541 17.3464 14.3839 17.0048L10.3527 14.0759C10.1424 13.9231 9.85762 13.9231 9.64733 14.0759L5.61609 17.0048C5.14586 17.3464 4.51317 16.8867 4.69278 16.3339L6.23258 11.5949C6.3129 11.3477 6.22491 11.0769 6.01462 10.9241L1.98337 7.99524C1.51315 7.6536 1.75481 6.90983 2.33605 6.90983H7.31893C7.57887 6.90983 7.80924 6.74245 7.88957 6.49524L9.42937 1.75623Z" fill="#D9D9D9"/>
<path d="M28.4294 1.75623C28.609 1.20344 29.391 1.20344 29.5706 1.75623L31.1104 6.49524C31.1908 6.74245 31.4211 6.90983 31.6811 6.90983H36.664C37.2452 6.90983 37.4869 7.6536 37.0166 7.99524L32.9854 10.9241C32.7751 11.0769 32.6871 11.3477 32.7674 11.5949L34.3072 16.3339C34.4868 16.8867 33.8541 17.3464 33.3839 17.0048L29.3527 14.0759C29.1424 13.9231 28.8576 13.9231 28.6473 14.0759L24.6161 17.0048C24.1459 17.3464 23.5132 16.8867 23.6928 16.3339L25.2326 11.5949C25.3129 11.3477 25.2249 11.0769 25.0146 10.9241L20.9834 7.99524C20.5131 7.6536 20.7548 6.90983 21.336 6.90983H26.3189C26.5789 6.90983 26.8092 6.74245 26.8896 6.49524L28.4294 1.75623Z" fill="#D9D9D9"/>
<path d="M66.4294 1.75623C66.609 1.20344 67.391 1.20344 67.5706 1.75623L69.1104 6.49524C69.1908 6.74245 69.4211 6.90983 69.6811 6.90983H74.664C75.2452 6.90983 75.4869 7.6536 75.0166 7.99524L70.9854 10.9241C70.7751 11.0769 70.6871 11.3477 70.7674 11.5949L72.3072 16.3339C72.4868 16.8867 71.8541 17.3464 71.3839 17.0048L67.3527 14.0759C67.1424 13.9231 66.8576 13.9231 66.6473 14.0759L62.6161 17.0048C62.1459 17.3464 61.5132 16.8867 61.6928 16.3339L63.2326 11.5949C63.3129 11.3477 63.2249 11.0769 63.0146 10.9241L58.9834 7.99524C58.5131 7.6536 58.7548 6.90983 59.336 6.90983H64.3189C64.5789 6.90983 64.8092 6.74245 64.8896 6.49524L66.4294 1.75623Z" fill="#D9D9D9"/>
<path d="M47.4294 1.75623C47.609 1.20344 48.391 1.20344 48.5706 1.75623L50.1104 6.49524C50.1908 6.74245 50.4211 6.90983 50.6811 6.90983H55.664C56.2452 6.90983 56.4869 7.6536 56.0166 7.99524L51.9854 10.9241C51.7751 11.0769 51.6871 11.3477 51.7674 11.5949L53.3072 16.3339C53.4868 16.8867 52.8541 17.3464 52.3839 17.0048L48.3527 14.0759C48.1424 13.9231 47.8576 13.9231 47.6473 14.0759L43.6161 17.0048C43.1459 17.3464 42.5132 16.8867 42.6928 16.3339L44.2326 11.5949C44.3129 11.3477 44.2249 11.0769 44.0146 10.9241L39.9834 7.99524C39.5131 7.6536 39.7548 6.90983 40.336 6.90983H45.3189C45.5789 6.90983 45.8092 6.74245 45.8896 6.49524L47.4294 1.75623Z" fill="#D9D9D9"/>
<path d="M85.4294 1.75623C85.609 1.20344 86.391 1.20344 86.5706 1.75623L88.1104 6.49524C88.1908 6.74245 88.4211 6.90983 88.6811 6.90983H93.664C94.2452 6.90983 94.4869 7.6536 94.0166 7.99524L89.9854 10.9241C89.7751 11.0769 89.6871 11.3477 89.7674 11.5949L91.3072 16.3339C91.4868 16.8867 90.8541 17.3464 90.3839 17.0048L86.3527 14.0759C86.1424 13.9231 85.8576 13.9231 85.6473 14.0759L81.6161 17.0048C81.1459 17.3464 80.5132 16.8867 80.6928 16.3339L82.2326 11.5949C82.3129 11.3477 82.2249 11.0769 82.0146 10.9241L77.9834 7.99524C77.5131 7.6536 77.7548 6.90983 78.336 6.90983H83.3189C83.5789 6.90983 83.8092 6.74245 83.8896 6.49524L85.4294 1.75623Z" fill="#D9D9D9"/>
</svg>
