<svg width="24" height="24" viewBox="0 0 24 24" fill="none" xmlns="http://www.w3.org/2000/svg">
<path d="M12.0464 10.8242C14.7593 10.8242 16.9585 8.625 16.9585 5.91211C16.9585 3.19923 14.7593 1 12.0464 1C9.3335 1 7.13428 3.19923 7.13428 5.91211C7.13428 8.625 9.3335 10.8242 12.0464 10.8242Z" fill="black" fill-opacity="0.86"/>
<path d="M15.6876 11.086C14.6573 11.8142 13.4014 12.2432 12.0464 12.2432C10.6912 12.2435 9.43525 11.814 8.40418 11.0863C3.22171 12.1308 3.09729 16.1147 3.09534 20.0408C3.09534 20.4531 3.24371 20.6057 3.4378 20.7487C5.65345 22.3806 9.39418 23 12.0427 23C14.6947 23 18.4352 22.3806 20.6508 20.7489C20.8452 20.6054 20.9933 20.4529 20.9933 20.0417C20.9916 16.1152 20.8679 12.1325 15.6876 11.086Z" fill="black" fill-opacity="0.86"/>
</svg>
